<?xml version="1.0" encoding="utf-8" ?><svg xmlns="http://www.w3.org/2000/svg" xmlns:xlink="http://www.w3.org/1999/xlink" width="102.096" height="98.995" viewBox="0 0 102.096 98.995"><defs><style>.a{fill:url(#a);}</style><linearGradient id="a" x1="0.5" x2="0.5" y2="1" gradientUnits="objectBoundingBox"><stop offset="0" stop-color="#1cbfdf"/><stop offset="1" stop-color="#2e3092"/></linearGradient></defs><g transform="translate(0.001 0.001)"><path class="a" d="M27.228,89.806V16.1L61.2,0l9.2,3.679c9.19,3.679,14.68,17.63,14.68,37.315V82.909L51.119,98.995Zm3.4-2.336L50.979,95.3l30.7-14.541V40.994c0-17.971-4.806-31.058-12.541-34.152L61.314,3.714,33.181,17.039l4.887,1.956c9.193,3.676,14.684,17.627,14.684,37.313V76.727H49.346V56.307c0-17.969-4.806-31.058-12.541-34.152L30.63,19.687ZM20.42,92.041v-3.4h3.4v3.4Zm-6.8-1.7v-3.4h3.4v3.4Zm35.877-.122V87.124h3.091v3.094ZM6.808,86.937v-3.4h3.4v3.4ZM49.492,84.03V79.907h3.091V84.03Zm-46.087-3.9v-3.4h3.4v3.4Zm-1.7-6.8v-3.4h3.4v3.4Zm1.7-6.807v-3.4h3.4v3.4Zm85.078-1.7v-3.4h3.4v3.4ZM55.638,58.654l13.024-6.167,1.454,3.074L57.095,61.727Zm39.65,2.76V58.009h3.405v3.405Zm-88.48-1.7v-3.4h3.4v3.4Zm6.808-3.4V52.9h3.4v3.4Zm85.078-1.7V51.2h3.4v3.4Zm-78.273,0V51.2h3.4v3.4Zm74.868-6.8V44.4h3.405V47.8ZM69.31,41.739l7.776-3.681,1.457,3.073-7.776,3.681ZM88.483,44.4v-3.4h3.4v3.4ZM55.037,41.614c-.294-1.764-.65-3.475-1.051-5.089l3.3-.827c.255,1.006.486,2.045.7,3.108l16.275-8.063C72.383,15.132,67,13.079,63.329,11.809l-14.387,6.81a36.491,36.491,0,0,1,7.146,12.965L52.86,32.659c-1.913-5.736-4.594-10.21-7.964-13.3l-1.865-1.709L63.14,8.137l1.161.406c4.3,1.482,11.487,3.968,13.47,23.018l.122,1.176L55.413,43.878ZM10.21,34.186v-3.4h3.405v3.4Zm6.808-3.4v-3.4h3.4v3.4Zm-13.612,0v-3.4h3.4v3.4ZM20.42,23.979v-3.4h3.4v3.4ZM0,23.979v-3.4H3.405v3.4Zm17.018-6.807v-3.4h3.4v3.4Zm-13.612,0v-3.4h3.4v3.4Zm6.8-3.4V10.364h3.405v3.405Z" transform="translate(-0.001 -0.001)"/></g></svg>