<?xml version="1.0" encoding="utf-8" ?><svg xmlns="http://www.w3.org/2000/svg" xmlns:xlink="http://www.w3.org/1999/xlink" width="88.738" height="99.162" viewBox="0 0 88.738 99.162"><defs><style>.a{fill:url(#a);}</style><linearGradient id="a" x1="0.5" x2="0.5" y2="1" gradientUnits="objectBoundingBox"><stop offset="0" stop-color="#1cbfdf"/><stop offset="1" stop-color="#2e3092"/></linearGradient></defs><g transform="translate(-0.267 0)"><path class="a" d="M6.549,89.958V16.12L40.579,0l9.214,3.684a15.184,15.184,0,0,1,4.874,3.225L52.306,9.363A11.8,11.8,0,0,0,48.526,6.85L40.7,3.717,12.515,17.066l4.895,1.957c9.209,3.684,14.708,17.66,14.708,37.379V76.855H28.705V56.4c0-18-4.812-31.113-12.561-34.212L9.957,19.717v67.9l20.386,7.838,30.75-14.565V41.062l-.908-.681L56.2,45.166,43.515,34.608,45.7,31.988l10.063,8.379,6.061-7.278-9.6-4.871,1.546-3.039,13.408,6.809L62.369,37.76l10.493,7.869,7.288-7.288-4.021-1.458,1.161-3.206,9.06,3.285L73.185,50.131,64.5,43.618V83.049L30.482,99.162Zm21.8.635V87.556H32.4v3.037Zm0-7.087V80.469H32.4v3.036ZM67.842,81.48V71.354h3.039V81.48Zm0-13.163V65.278h3.039v3.039ZM0,66.292V63.253H3.039v3.039Zm35.008-7.541,13.048-6.177,1.458,3.08L36.467,61.831Zm38.018,2.764V58.106h3.407v3.408ZM0,60.216v-24.3H3.039v24.3ZM67.91,56.4V52.994h3.408V56.4Zm-33.5-14.72a57.463,57.463,0,0,0-2.59-10.148l3.2-1.166a58.307,58.307,0,0,1,2.324,8.425l3.821-2.057,1.612,3.005L34.8,44.034ZM69.641,27.47l3.179-.328.35,3.391-3.179.328Zm6.867-.709,8.071-.833L81.93,14,71.768,15.449l-.484-3.377,13.289-1.9,4.166,18.749L76.857,30.152Zm-36.9-4.828L63.325,8.1l8.712,13.069L63.83,25.956l-1.719-2.947,5.081-2.962-4.924-7.386L45.076,22.693l2.967,3.078-2.452,2.366ZM24.25,19.393l-1.871-1.714,20.142-9.53,1.164.406a16.5,16.5,0,0,1,5.956,3.2L47.39,14.314a12.948,12.948,0,0,0-4.674-2.487L28.3,18.649a31.086,31.086,0,0,1,4.225,6.1l-3,1.612A26.214,26.214,0,0,0,24.25,19.393ZM69.157,5.81l8.092-3.136,1.233,3.179L70.391,8.989ZM81.239,1.132,84.152,0l1.231,3.179-2.913,1.13Z" transform="translate(0.267 0.001)"/></g></svg>