<?xml version="1.0" encoding="utf-8" ?><svg xmlns="http://www.w3.org/2000/svg" width="142.153" height="30.584" viewBox="0 0 142.153 30.584"><defs><style>.a{fill:#fff;}</style></defs><g transform="translate(-64.544 -71.54)"><g transform="translate(64.544 71.54)"><path class="a" d="M321.948,64.541H311.636l-.016,30.583h10.328c8.27,0,14.72-1.331,14.749-15.293-.029-13.961-6.48-15.29-14.749-15.29m0,25.385h-4.212V69.739h4.212c7.64,0,8.62,3.734,8.633,10.092-.013,6.359-.993,10.094-8.633,10.094" transform="translate(-194.544 -64.541)"/><path class="a" d="M85.523,69.755H93V95.124h6.116V69.755h8.869V64.54H85.523Z" transform="translate(-75.582 -64.54)"/><path class="a" d="M150.128,64.54c-8.269,0-14.719,1.33-14.75,15.291.031,13.961,6.481,15.292,14.75,15.292h5.877l1.394-5.2h-7.271c-7.64,0-8.618-3.734-8.633-10.093.014-6.359.993-10.092,8.633-10.092l6.214.017-.019-5.216Z" transform="translate(-101.814 -64.54)"/><rect class="a" width="6.117" height="30.584" transform="translate(0 0)"/><path class="a" d="M276.648,75.551c0-10.014-6.481-11.01-14.75-11.01H253.4V95.124h6.117V69.74H261.9c7.64,0,8.631,2.738,8.631,5.811s-.991,5.811-8.631,5.811h-.268l7.9,13.763h7.12l-5.6-9.695c3.427-1.311,5.6-4,5.6-9.878" transform="translate(-163.914 -64.541)"/><path class="a" d="M206.469,64.544H195.239l-8.1,30.581h6.354l2.287-8.566h10.252l2.3,8.566h6.325Zm-9.3,16.822,3.1-11.621h1.258l3.114,11.621Z" transform="translate(-129.048 -64.542)"/></g></g></svg>